<?xml version="1.0" encoding="utf-8"?>
<!-- Generator: Adobe Illustrator 24.2.0, SVG Export Plug-In . SVG Version: 6.00 Build 0)  -->
<svg version="1.1" id="Capa_1" xmlns="http://www.w3.org/2000/svg" xmlns:xlink="http://www.w3.org/1999/xlink" x="0px" y="0px"
	 viewBox="0 0 1920 645" style="enable-background:new 0 0 1920 645;" xml:space="preserve">
<style type="text/css">
	.st0{fill:#CE2B37;}
	.st1{fill:#FFFFFF;}
	.st2{fill:#74AA7B;}
</style>
<path class="st0" d="M573,277.1h-45.9v87h-26.1v-87H455v-22.2h118V277.1z"/>
<path class="st0" d="M599.7,314.2c5.7,0,10.2,0.2,13.6,0.6c3.4,0.4,6.1,0.9,8.1,1.6c2,0.7,3.4,1.5,4.3,2.5c0.9,1,1.7,2.1,2.3,3.2v-6
	c0-2.6-0.3-4.8-0.9-6.6c-0.6-1.8-1.7-3.2-3.1-4.2c-1.4-1-3.3-1.8-5.7-2.2c-2.4-0.4-5.4-0.6-9-0.6h-16.5c-3.4,0-6.1,0.2-8.3,0.5
	c-2.2,0.3-3.9,0.7-5.1,1.3c-1.3,0.5-2.1,1.2-2.6,2c-0.5,0.8-0.7,1.7-0.7,2.7h-24.9c0-7.6,2.6-13.2,7.7-16.9
	c5.1-3.7,13.7-5.6,25.6-5.6h28.6c7,0,12.9,0.7,17.6,2.2c4.7,1.5,8.5,3.5,11.3,6.1c2.8,2.6,4.9,5.7,6.1,9.3c1.2,3.6,1.8,7.6,1.8,11.9
	v48.3h-21.9v-8.8c-0.7,1.3-1.5,2.4-2.4,3.5c-0.8,1-2.2,2-4,2.8c-1.8,0.8-4.4,1.4-7.7,1.9c-3.3,0.5-7.7,0.7-13.3,0.7h-17.5
	c-11.3,0-19.6-1.7-24.9-5.1c-5.2-3.4-7.9-9.1-7.9-17.2v-4.4c0-3.9,0.5-7.3,1.5-10.1c1-2.9,2.8-5.3,5.3-7.2c2.5-1.9,5.9-3.4,10.1-4.3
	c4.2-0.9,9.5-1.4,16-1.4H599.7z M579.4,345.3c2.1,0.9,5.2,1.3,9,1.3h25.2c4,0,7.1-0.4,9.4-1.3c2.3-0.8,3.5-2.9,3.5-6.1
	c0-3.1-1.1-5.2-3.4-6.1c-2.3-0.9-5.4-1.4-9.5-1.4h-25.2c-3.7,0-6.6,0.4-8.9,1.3c-2.3,0.8-3.4,2.9-3.4,6.3
	C576.1,342.4,577.2,344.4,579.4,345.3z"/>
<path class="st0" d="M700.1,307.2l16.8-20.8h28.6l-27.4,34.3l34.3,43.4h-29.1l-22.3-28.9l-23,28.9h-28.9l33.7-42.6l-27.7-35.1h28.9
	L700.1,307.2z"/>
<path class="st1" d="M798.6,254.9l45,80.4l46.6-80.4h39.2v109.2H903v-80.2l-45.3,80.2h-28.3l-45.2-80.2v80.2h-26.1V254.9H798.6z"/>
<path class="st1" d="M960.7,362.4c-4.8-1.3-8.8-3.3-12.1-6.1c-3.3-2.8-5.8-6.5-7.6-10.9c-1.7-4.5-2.6-9.8-2.6-16.1v-42.8h26.3v38.2
	c0,4,0.4,7.3,1.3,10.1c0.8,2.7,2.1,4.9,3.9,6.5c1.8,1.6,4.1,2.8,6.9,3.5c2.8,0.7,6.3,1.1,10.4,1.1h10.2c7.3,0,12.9-1.8,16.8-5.4
	c3.8-3.6,5.7-8.9,5.7-15.8v-38.2h26.4v77.7h-26.1v-9.8c-0.8,1.2-1.8,2.3-3,3.5c-1.2,1.2-2.6,2.2-4.4,3.1c-1.8,0.9-3.9,1.7-6.4,2.4
	c-2.5,0.6-5.5,0.9-9,0.9h-20.3C971,364.3,965.5,363.6,960.7,362.4z"/>
<path class="st1" d="M1077,343.2c0.2,0.7,0.7,1.4,1.4,2c0.7,0.6,1.7,1.1,3,1.5c1.3,0.4,2.9,0.6,5,0.6h28.9c4,0,6.7-0.6,8.1-1.7
	c1.4-1.1,2.1-2.6,2.1-4.6c0-1.8-0.7-3.2-2-4.3s-4.1-1.7-8.2-1.8l-35.1-0.6c-4.2-0.1-7.9-0.5-11.2-1.2c-3.3-0.7-6.1-1.8-8.3-3.5
	c-2.3-1.6-4-3.7-5.2-6.4c-1.2-2.6-1.8-5.9-1.8-9.9v-3.8c0-3.7,0.5-6.9,1.5-9.8c1-2.9,2.7-5.3,5.1-7.4c2.4-2,5.6-3.6,9.5-4.6
	c3.9-1,8.8-1.6,14.7-1.6h35.2c5.2,0,9.8,0.3,13.8,1c3.9,0.7,7.2,1.9,9.8,3.6c2.6,1.7,4.5,4.1,5.8,7.2c1.3,3,2,6.9,2,11.5h-24.5
	c0-4.1-4.4-6.1-13.1-6.1h-27.2c-3.7,0-6.2,0.5-7.5,1.5c-1.3,1-2,2.4-2,4.2c0,1.8,0.6,3,1.7,3.7c1.2,0.7,3.7,1.1,7.6,1.2l34.1,0.6
	c5.9,0.1,10.8,0.6,14.8,1.5c4,0.9,7.2,2.3,9.7,4.1c2.5,1.8,4.2,4.1,5.3,6.8c1,2.7,1.6,5.9,1.6,9.7v4.1c0,7.9-2.6,13.8-7.9,17.8
	c-5.3,4-13.1,6-23.4,6h-37.1c-4.4,0-8.4-0.3-12.1-1c-3.7-0.7-6.8-1.9-9.4-3.7c-2.6-1.8-4.6-4.2-6-7.2c-1.4-3-2.1-6.8-2.1-11.4h23.1
	C1076.7,341.7,1076.8,342.4,1077,343.2z"/>
<path class="st1" d="M1210.8,345.4c3.6,0,6.4-0.4,8.6-1.2c2.1-0.8,3.8-1.8,5-3c1.2-1.2,1.9-2.6,2.3-4.2c0.4-1.6,0.6-3.1,0.6-4.7
	h26.9c0,4.1-0.5,8-1.5,11.8c-1,3.8-3,7.2-6.1,10.1c-3,3-7.4,5.4-13.1,7.2c-5.7,1.8-13.2,2.7-22.4,2.7h-8.7c-7.2,0-13.4-0.7-18.6-2
	c-5.1-1.4-9.3-3.5-12.6-6.3c-3.3-2.8-5.6-6.3-7.1-10.5c-1.5-4.2-2.2-9.1-2.2-14.8v-22.3h-9.6v-21.7h9.6v-14.9h26.1v14.9h55.1v21.7
	H1188v23.6c0,4.7,1.2,8.2,3.7,10.4c2.5,2.2,6.5,3.3,12.2,3.3H1210.8z"/>
<path class="st1" d="M1308.9,314.2c5.7,0,10.2,0.2,13.6,0.6c3.4,0.4,6.1,0.9,8.1,1.6c2,0.7,3.4,1.5,4.3,2.5c0.9,1,1.7,2.1,2.3,3.2
	v-6c0-2.6-0.3-4.8-0.9-6.6c-0.6-1.8-1.7-3.2-3.1-4.2c-1.4-1-3.3-1.8-5.7-2.2c-2.4-0.4-5.4-0.6-9-0.6H1302c-3.4,0-6.1,0.2-8.3,0.5
	c-2.2,0.3-3.9,0.7-5.1,1.3c-1.3,0.5-2.1,1.2-2.6,2c-0.5,0.8-0.7,1.7-0.7,2.7h-24.9c0-7.6,2.6-13.2,7.7-16.9
	c5.1-3.7,13.7-5.6,25.6-5.6h28.6c7,0,12.9,0.7,17.6,2.2c4.7,1.5,8.5,3.5,11.3,6.1c2.8,2.6,4.9,5.7,6.1,9.3c1.2,3.6,1.8,7.6,1.8,11.9
	v48.3h-21.9v-8.8c-0.7,1.3-1.5,2.4-2.4,3.5c-0.8,1-2.2,2-4,2.8c-1.8,0.8-4.4,1.4-7.7,1.9c-3.3,0.5-7.7,0.7-13.3,0.7h-17.5
	c-11.3,0-19.6-1.7-24.9-5.1c-5.2-3.4-7.9-9.1-7.9-17.2v-4.4c0-3.9,0.5-7.3,1.5-10.1c1-2.9,2.8-5.3,5.3-7.2c2.5-1.9,5.9-3.4,10.1-4.3
	c4.2-0.9,9.5-1.4,16-1.4H1308.9z M1288.6,345.3c2.1,0.9,5.2,1.3,9,1.3h25.2c4,0,7.1-0.4,9.4-1.3c2.3-0.8,3.5-2.9,3.5-6.1
	c0-3.1-1.1-5.2-3.4-6.1c-2.3-0.9-5.4-1.4-9.5-1.4h-25.2c-3.7,0-6.6,0.4-8.9,1.3c-2.3,0.8-3.4,2.9-3.4,6.3
	C1285.3,342.4,1286.4,344.4,1288.6,345.3z"/>
<path class="st1" d="M1464,349.2c-1,3.2-3,5.9-6,8.1c-3,2.2-7.2,3.9-12.7,5c-5.5,1.2-12.7,1.7-21.6,1.7h-11.8
	c-9.1,0-16.6-0.6-22.5-1.8c-5.9-1.2-10.5-3.1-13.8-5.8c-3.4-2.7-5.7-6.1-7-10.4c-1.3-4.2-2-9.4-2-15.5v-10.1c0-6.1,0.7-11.3,2-15.7
	c1.4-4.4,3.7-8,7-10.7c3.3-2.7,7.7-4.7,13.3-6.1c5.6-1.3,12.5-2,20.9-2h11.8c8.8,0,16.1,0.5,21.8,1.5c5.7,1,10.2,2.5,13.5,4.6
	c3.2,2.1,5.5,4.8,6.8,8.1c1.3,3.3,1.9,7.2,1.9,11.7v1.6h-24.9c0-1.5-0.3-2.8-0.8-3.9c-0.5-1.1-1.6-2-3.2-2.8
	c-1.6-0.8-3.9-1.4-6.8-1.7c-2.9-0.4-6.8-0.6-11.6-0.6h-6c-4.4,0-8.1,0.3-11.1,1c-3,0.7-5.4,1.8-7.2,3.2c-1.8,1.5-3,3.4-3.8,5.7
	c-0.7,2.3-1.1,5.1-1.1,8.5v5c0,6.3,1.7,10.8,5.2,13.5c3.5,2.7,9.5,4.1,18.1,4.1h6.3c4.8,0,8.7-0.2,11.6-0.6c2.9-0.4,5.1-1,6.7-1.8
	c1.6-0.8,2.6-1.8,3.1-3.1c0.5-1.3,0.7-2.7,0.7-4.2h24.9v2.4C1465.5,342.4,1465,346,1464,349.2z"/>
<path class="st1" d="M1558.3,288.5c5.1,1.5,9.3,3.7,12.5,6.7c3.2,3,5.5,6.7,6.8,11.2c1.4,4.5,2,9.6,2,15.5v42.3h-26.3v-40.4
	c0-3.4-0.3-6.2-1-8.7c-0.7-2.4-1.9-4.4-3.5-6c-1.7-1.6-3.9-2.7-6.8-3.5c-2.8-0.7-6.4-1.1-10.7-1.1h-12.7c-6.6,0-11.7,1.8-15.2,5.5
	c-3.5,3.7-5.3,9-5.3,15.9v38.2h-26.3V254.9h26v42.6c0.8-1.4,1.8-2.7,2.9-4.1c1.1-1.4,2.5-2.6,4.3-3.6c1.8-1,3.9-1.9,6.5-2.5
	c2.5-0.6,5.6-0.9,9.3-0.9h18.4C1546.8,286.3,1553.1,287.1,1558.3,288.5z"/>
<path class="st1" d="M1608.3,362.4c-5.8-1.3-10.4-3.2-13.8-5.9c-3.5-2.7-5.9-6.1-7.3-10.4c-1.4-4.2-2.1-9.4-2.1-15.5v-10.5
	c0-6,0.7-11.1,2-15.4c1.4-4.3,3.7-7.8,7-10.5c3.3-2.7,7.7-4.7,13.1-6.1c5.5-1.3,12.3-2,20.5-2h12.4c8.8,0,16,0.6,21.7,1.7
	c5.7,1.1,10.1,3,13.5,5.6c3.3,2.6,5.6,6.1,6.8,10.4c1.3,4.3,1.9,9.6,1.9,16v11.3h-75v3c0,3.8,1.3,6.8,3.9,9
	c2.6,2.2,7.2,3.3,13.8,3.3h16.4c3.3,0,6-0.1,8.1-0.2c2.1-0.2,3.9-0.5,5.1-1.1c1.3-0.6,2.1-1.4,2.7-2.4c0.5-1,0.8-2.3,0.8-3.9h24.4
	v1.6c0,3-0.5,6-1.5,8.9c-1,2.9-3,5.4-6.1,7.6s-7.3,4-12.9,5.3c-5.6,1.4-12.9,2-22,2H1630C1621.3,364.3,1614.1,363.6,1608.3,362.4z
	 M1625.6,304.3c-3.8,0-6.8,0.4-9,1.3c-2.2,0.8-3.9,1.9-5,3.1c-1.1,1.3-1.8,2.6-2,4c-0.3,1.4-0.4,2.7-0.4,3.9h50.3
	c0-1.4-0.2-2.8-0.5-4.2c-0.3-1.4-1.1-2.7-2.3-3.9c-1.2-1.2-3-2.2-5.3-3c-2.4-0.8-5.5-1.2-9.5-1.2H1625.6z"/>
<path class="st1" d="M356.3,355.6h103.5c0,0-13.9,55.7-67.6,39.8l-35.8-15.9V355.6z"/>
<path class="st0" d="M288.6,212.4c0,0-23.9,41.8-11.9,79.6l87.5-6c0,0-6,25.9,9.9,59.7H414c0,0-47.8-61.7-9.9-139.3L288.6,212.4z"/>
<path class="st2" d="M244.8,299.7l107.4-6c0,0,4,99.5,67.6,105.5h-93.5C326.4,399.1,254.8,401.1,244.8,299.7z"/>
<path class="st1" d="M331,247.3c0.9-1,1.7-1.9,2.5-2.7c9.2-9.7,22.4-10,32-0.8c4,3.9,7.7,8.1,11.6,12c4.8,4.8,10.4,7.7,17.3,7.6
	c3.2-0.1,6-0.7,8.3-3.2c0.4-0.4,1.2-0.3,1.9-0.4c0.1,0.7,0.5,1.5,0.3,2.1c-0.4,1-1.1,1.9-1.8,2.8c-6.7,8.4-15.3,13.3-25.9,14.9
	c-12.2,1.8-23.9,0.2-34.9-5.7c-2.6-1.4-5.2-2.6-7.8-4.1c-2.5-1.4-4.8-1.3-7.3,0c-4.4,2.3-8.8,4.9-13.5,6.6
	c-12.7,4.8-25.7,5.3-38.6,0.6c-7.2-2.7-12.9-7.4-17.4-13.6c-0.5-0.6-0.9-1.4-1.1-2.1c-0.1-0.5,0.2-1.2,0.6-1.5
	c0.3-0.2,1.1-0.1,1.4,0.1c6.1,5.7,12.8,4,19.1,1c3.3-1.6,6.1-4.5,8.9-7c2.7-2.5,5.1-5.3,7.6-8c4.8-5.3,10.7-8.6,18-8.7
	c6.7-0.1,11.9,3.1,16.4,7.8C329.4,245.5,330.1,246.3,331,247.3z"/>
</svg>
